<?xml version="1.0" encoding="UTF-8"?>
<svg width="760px" height="134px" viewBox="0 0 760 134" version="1.1" xmlns="http://www.w3.org/2000/svg" xmlns:xlink="http://www.w3.org/1999/xlink">
    <!-- Generator: Sketch 44.1 (41455) - http://www.bohemiancoding.com/sketch -->
    <title>Enevo_logo (2)</title>
    <desc>Created with Sketch.</desc>
    <defs></defs>
    <g id="Page-1" stroke="none" stroke-width="1" fill="none" fill-rule="evenodd">
        <g id="Enevo_logo-(2)" fill-rule="nonzero" fill="#F58A1F">
            <g id="_Group_">
                <path d="M93.3,54.33 C92.56,45.6633333 90.0566667,39.26 85.79,35.12 C81.1566667,30.6333333 74.55,28.3933333 65.97,28.4 C58.1166667,28.4 51.69,30.64 46.69,35.12 C41.69,39.6 39.0233333,46.0033333 38.69,54.33 L93.3,54.33 Z M102.93,91.77 L129.7,91.77 C125.786667,105.203333 118.293333,115.446667 107.22,122.5 C96.1333333,129.873333 82.21,133.556667 65.45,133.55 C45.0966667,133.55 29.2033333,127.623333 17.77,115.77 C6.35,104.256667 0.64,87.7766667 0.64,66.33 C0.64,45.83 6.17333333,29.83 17.24,18.33 C28.6733333,6.49 44.5633333,0.57 64.91,0.57 C86.33,0.57 102.926667,6.32666667 114.7,17.84 C126.126667,29.68 131.843333,46.1633333 131.85,67.29 L131.85,72.58 C131.925875,73.7222413 131.74477,74.8669653 131.32,75.93 L38.66,75.93 C39.0133333,85.85 41.68,93.2133333 46.66,98.02 C51.3266667,103.133333 58.2933333,105.69 67.56,105.69 C72.9320481,105.852669 78.2627207,104.702782 83.09,102.34 C84.1805991,101.993832 85.1858449,101.421353 86.04,100.66 C86.91,99.87 87.9,98.97 88.99,98.02 C89.34,97.02 90.67,95.77 92.99,94.17 C95.31,92.57 98.61,91.77 102.91,91.77 L102.93,91.77 Z" id="_Compound_Path_"></path>
                <path d="M285.26,131.16 L266.5,131.16 C261.14,131.16 256.79,129.64 253.37,126.57 C250.008302,123.61519 248.141698,119.313566 248.28,114.84 L248.28,49.52 C248.28,41.84 245.693333,36.2433333 240.52,32.73 C235.397956,29.2199119 229.318988,27.3728275 223.11,27.44 C216.991391,27.3540031 211.00238,29.2056611 206,32.73 C200.993333,36.2433333 198.493333,41.84 198.5,49.52 L198.5,131.16 L161,131.16 L161,56.24 C161,34.4733333 167.333333,19.91 180,12.55 C192.800237,5.15717876 207.226233,1.03546559 222,0.55 C237.174613,0.400892934 252.12836,4.19101323 265.4,11.55 C278.586667,18.8833333 285.196667,33.7633333 285.23,56.19 L285.23,131.11 L285.26,131.16 Z" id="_Path_"></path>
                <path d="M407,54.33 C406.293333,45.6633333 403.796667,39.26 399.51,35.12 C394.843333,30.6333333 388.24,28.3933333 379.7,28.4 C371.833333,28.4 365.403333,30.64 360.41,35.12 C355.416667,39.6 352.75,46.0033333 352.41,54.33 L407,54.33 Z M416.66,91.77 L443.43,91.77 C439.496667,105.203333 432.003333,115.446667 420.95,122.5 C409.856667,129.873333 395.926667,133.556667 379.16,133.55 C358.826667,133.55 342.94,127.623333 331.5,115.77 C320.08,104.256667 314.37,87.7766667 314.37,66.33 C314.37,45.83 319.9,29.83 330.96,18.33 C342.4,6.49 358.293333,0.57 378.64,0.57 C400.046667,0.57 416.646667,6.32666667 428.44,17.84 C439.86,29.68 445.57,46.1633333 445.57,67.29 L445.57,72.58 C445.641159,73.7202729 445.467259,74.8625609 445.06,75.93 L352.41,75.93 C352.776667,85.85 355.443333,93.2133333 360.41,98.02 C365.05,103.14 372,105.69 381.3,105.69 C386.678214,105.849894 392.014707,104.700232 396.85,102.34 C397.935096,101.994897 398.934021,101.422134 399.78,100.66 C400.67,99.87 401.65,98.97 402.78,98.02 C403.13,97.02 404.46,95.77 406.78,94.17 C409.1,92.57 412.4,91.77 416.67,91.77 L416.66,91.77 Z" id="_Compound_Path_2"></path>
                <path d="M555.6,131.16 L517.6,131.16 L467.8,3.44 L507.43,3.44 L535.8,93.22 L561,14.95 C563.846667,7.27666667 569.553333,3.44 578.12,3.44 L605.96,3.44 L555.6,131.16 Z" id="_Path_2"></path>
                <path d="M664.57,68 C665.236667,82.5733333 668.273333,92.7333333 673.68,98.48 C675.83,101.05 679.55,103.21 684.9,104.96 C690.186744,106.710054 695.869694,106.876893 701.25,105.44 C706.78,103.99 711.69,100.44 715.96,94.64 C720.23,88.84 722.58,79.64 722.96,66.8 C722.96,55.2733333 720.91,46.6333333 716.81,40.88 C712.69,35.12 707.98,31.45 702.62,29.88 C697.395323,28.2777995 691.823773,28.1876562 686.55,29.62 C681.19,31.06 677.25,32.91 674.76,35.14 C667.28,42.51 663.86,53.47 664.6,68.01 M649,119.57 C641.369033,113.658895 635.749681,105.535456 632.91,96.31 C629.691844,86.4648159 628.07132,76.1677355 628.11,65.81 C628.128902,57.0210213 629.477498,48.2854897 632.11,39.9 C634.478589,31.7823204 638.801464,24.369225 644.7,18.31 C653.973333,8.71 665.933333,3.02666667 680.58,1.26 C695.226667,-0.506666667 708.436667,0.536666667 720.21,4.39 C733.79,9.2 743.75,17.52 750.21,29.39 C756.303333,39.9433333 759.35,52.2766667 759.35,66.39 C759.35,76.6233333 758.09,85.4166667 755.57,92.77 C753.4228,99.4687776 750.189754,105.769332 746,111.42 C737.859968,121.720371 726.258532,128.716765 713.35,131.11 C701.673178,133.985425 689.503454,134.231347 677.72,131.83 C665.77,129.43 656.18,125.36 649.08,119.57" id="_Compound_Path_3"></path>
            </g>
        </g>
    </g>
</svg>